<?xml version="1.0" encoding="utf-8"?>
<!-- Generator: Adobe Illustrator 24.0.1, SVG Export Plug-In . SVG Version: 6.00 Build 0)  -->
<svg version="1.1" id="Capa_1" xmlns="http://www.w3.org/2000/svg" xmlns:xlink="http://www.w3.org/1999/xlink" x="0px" y="0px"
	 viewBox="0 0 664.2 662.9" style="enable-background:new 0 0 664.2 662.9;" xml:space="preserve">
<style type="text/css">
	.st0{fill:#EE1C25;}
	.st1{fill:#FFFF00;}
</style>
<rect y="0" class="st0" width="664.2" height="662.9"/>
<g>
	<polygon class="st1" points="212,246.6 191.8,184.4 171.6,246.6 106.2,246.6 159.1,285.1 138.9,347.2 191.8,308.8 244.7,347.2 
		224.5,285.1 277.4,246.6 	"/>
	<polygon class="st1" points="337.3,195 348.5,213.7 350.4,192 371.7,187.1 351.6,178.5 353.5,156.8 339.2,173.3 319.1,164.7 
		330.4,183.4 316,199.9 	"/>
	<polygon class="st1" points="393.5,252.4 396.6,274 406.8,254.7 428.3,258.5 413.1,242.8 423.3,223.5 403.7,233.1 388.6,217.5 
		391.6,239.1 372.1,248.7 	"/>
	<polygon class="st1" points="412.8,337.6 430,324.2 408.2,324.9 400.7,304.5 394.7,325.4 372.9,326.2 391,338.4 385,359.3 
		402.2,345.9 420.3,358.1 	"/>
	<polygon class="st1" points="351.3,388.1 352.4,366.4 338.7,383.4 318.3,375.7 330.3,393.9 316.7,410.9 337.7,405.2 349.7,423.4 
		350.7,401.6 371.7,395.8 	"/>
</g>
</svg>
