<?xml version="1.0" encoding="utf-8"?>
<!-- Generator: Adobe Illustrator 24.0.1, SVG Export Plug-In . SVG Version: 6.00 Build 0)  -->
<svg version="1.1" id="Capa_1" xmlns="http://www.w3.org/2000/svg" xmlns:xlink="http://www.w3.org/1999/xlink" x="0px" y="0px"
	 viewBox="0 0 422 424" style="enable-background:new 0 0 422 424;" xml:space="preserve">
<style type="text/css">
	.st0{clip-path:url(#SVGID_2_);}
	.st1{fill:#FED150;}
	.st2{fill:#C7414B;}
	.st3{fill:#FEFDFD;}
	.st4{fill:#C8454C;}
	.st5{fill:#F4F3F2;}
	.st6{fill:#C8434B;}
	.st7{fill:#F4F2EF;}
	.st8{fill:#F8B246;}
	.st9{fill:#5567A7;}
	.st10{fill:#CA494F;}
	.st11{fill:#F9B64A;}
	.st12{fill:#F3EEEB;}
	.st13{fill:#5264A9;}
	.st14{fill:#F7AF47;}
	.st15{fill:#FEA1D2;}
</style>
<g>
	<defs>
		<circle id="SVGID_1_" cx="210.8" cy="210.8" r="201.86"/>
	</defs>
	<clipPath id="SVGID_2_">
		<use xlink:href="#SVGID_1_"  style="overflow:visible;"/>
	</clipPath>
	<g class="st0">
		<path class="st1" d="M6.06,330.12c0-79.28,0-158.57,0-237.85c1.86-0.06,3.72-0.17,5.57-0.17c132.29-0.01,264.57-0.01,396.86-0.01
			c1.99,0,3.99-0.07,5.98-0.11c0.08,1.46,0.23,2.91,0.23,4.37c0.01,76.69,0.01,153.38,0,230.08c0,1.32-0.15,2.64-0.24,3.96
			c-2.39-0.03-4.79-0.08-7.18-0.08c-131.89,0-263.77,0-395.66-0.01C9.78,330.29,7.92,330.18,6.06,330.12z M189.41,190.38
			c0.27-1.16,0.57-2.31,0.82-3.48c1.09-5.13-0.3-6.88-5.51-6.96c-6.88-0.1-7.94,1.24-6.37,8.05c0.18,0.77,0.33,1.56,0.49,2.33
			c-0.78,0.04-1.56,0.1-2.33,0.1c-2.24,0.01-4.46-0.31-4.47,3.19c-0.01,3.13,1.38,4.22,4.23,4.1c-0.01,4.5-0.02,8.99-0.04,13.49
			c-3.76,0.07-7.52,0.13-11.28,0.2c-0.05-4.11-0.06-8.23-0.17-12.34c-0.15-5.67-2.97-8.45-8.69-8.63c-2.39-0.08-4.78-0.08-7.16-0.12
			c0.02-2.3,0.04-4.59,0.05-6.89c2.37-2.04,4.75-4.09,7.13-6.14c3.71-2.02,5.08-5.32,4.59-9.29c-0.7-5.73-6.57-9.88-12.84-9.22
			c-1.58,0.17-2.8,0.63-3.97-1.27c-3.24-5.27-8.14-6.79-14.05-5.25c0.29-2.97-0.78-4.23-4.03-4.21c-3.17,0.02-4.4,1.11-4.05,4.16
			c-5.96-1.47-10.81,0.15-14.09,5.42c-0.93,1.49-1.84,1.42-3.27,1.23c-4.53-0.62-8.44,0.75-11.35,4.35
			c-3.67,4.54-2.72,10.53,1.97,13.28c2.53,2.3,5.06,4.6,7.58,6.91c0,2.31,0,4.62,0,6.92c-1.73,0.04-3.45,0.11-5.18,0.12
			c-7.97,0.03-10.5,2.52-10.56,10.42c-0.09,11.07-0.09,11.07-11.45,10.39c-0.02-4.51-0.04-9.02-0.06-13.53
			c2.83,0.22,4.28-0.63,4.21-3.92c-0.08-3.38-1.99-3.42-4.37-3.33c-0.78,0.03-1.56-0.04-2.35-0.06c0.27-1.16,0.57-2.31,0.82-3.48
			c1.09-5.11-0.32-6.87-5.52-6.95c-6.87-0.1-7.94,1.26-6.36,8.07c0.18,0.77,0.31,1.56,0.47,2.34c-0.79,0.03-1.57,0.11-2.36,0.08
			c-2.36-0.06-4.34-0.11-4.43,3.33c-0.08,3.34,1.43,4.14,4.24,3.96c-0.01,4.5-0.03,9.01-0.04,13.51c-2.52,0-4.02,0.61-4.05,3.78
			c-0.03,3.27,1.62,3.67,4.07,3.66c0,4.18,0,8.36,0,12.53c-0.73,0.3-1.47,0.56-2.18,0.89c-3.06,1.4-1.91,4.2-1.57,6.25
			c0.36,2.17,2.37,0.3,3.62,0.51c0.03,4.87,0.07,9.73,0.1,14.6c-3.35-0.39-4.53,1.23-4.13,4.39c0.11,0.91,0.02,1.84,0.02,2.77
			c-3.56-0.5-3.54,1.71-3.67,4.35c-0.16,3.18,1.69,2.94,3.76,2.93c7.82-0.03,15.63-0.02,23.45-0.01c2.1,0,4.26,0.51,4.13-2.98
			c-0.1-2.73-0.3-4.76-3.75-4.29c-0.68-2.77,2.18-7.55-4.07-7.14c-0.01-6.47-0.02-12.94-0.03-19.42c0.61-0.24,1.21-0.52,1.84-0.72
			c3.41-1.07,2.2-3.94,2-6.02c-0.28-2.88-2.5-0.38-3.74-0.87c-0.03-2.6-0.05-5.19-0.08-7.79c0.52-0.05,1.04-0.17,1.55-0.14
			c3.09,0.17,6.53-1.03,9.18,0.59c1.99,1.22-0.11,4.51,1.37,6.55c0,6.07-0.28,12.15,0.07,18.2c0.3,5.21,1.82,10.1,6.94,12.88
			c0.17,1.68,1.9,1.95,2.74,3.02c1.11,1.76,2.96,2.49,4.71,3.28c11.95,5.39,24.4,5.86,37.07,3.47c6.04-1.14,11.84-3,16.47-7.37
			c6.92-5.55,9.98-12.72,9.32-21.6c-0.29-3.95-0.09-7.93-0.12-11.9c0.07-2.38,0.14-4.77,0.22-7.15c3.78,0.06,7.55,0.13,11.33,0.19
			c-0.03,2.58-0.06,5.17-0.08,7.75c-3.19-1.19-3.92,0.08-3.98,3.24c-0.07,3.19,2.05,3.54,4.06,4.36c-0.01,1.44-0.11,2.89-0.02,4.33
			c0.35,5.19-0.87,10.46,0.69,15.6c-0.28,2.22-0.56,4.44-0.84,6.66c-1.58,0.05-3.18,0.27-4.74,0.11c-3.31-0.33-2.68,1.95-2.78,3.86
			c-0.11,2.08,0.09,3.44,2.88,3.36c7.12-0.2,14.26-0.07,21.39-0.07c6.82,0,6.82,0,6.98-6.81c0.54-7.5,0.54-7.5-7.06-7.57
			c-0.26,0-0.52-0.01-0.78-0.02c0.04-4.88,0.07-9.77,0.11-14.65c2.69,0.95,3.9,0.59,3.98-2.85c0.07-3.34-1.92-3.92-4.12-4.79
			c0-4.18,0-8.35,0.01-12.53c2.52,0.04,4.1-0.43,4.1-3.71c0-3.27-1.53-3.79-4.07-3.73c-0.02-4.51-0.04-9.02-0.06-13.54
			c2.83,0.23,4.27-0.63,4.19-3.92c-0.07-3.37-1.98-3.43-4.36-3.33C190.97,190.46,190.19,190.4,189.41,190.38z"/>
		<path class="st2" d="M6.06,330.12c1.86,0.06,3.72,0.17,5.57,0.17c131.89,0.01,263.77,0.01,395.66,0.01c2.39,0,4.79,0.05,7.18,0.08
			c-0.03,4.8-0.59,9.57-1.74,14.19c-8.99,36.17-31.44,59.16-67.59,68.69c-3.4,0.9-7.07,0.46-10.24,2.27c-83.27,0-166.55,0-249.82,0
			c-0.98-1.48-2.64-0.99-3.97-1.25c-38.41-7.68-62.53-30.52-72.76-68.25c-0.93-3.41-0.51-7.1-2.29-10.31
			C6.06,333.85,6.06,331.99,6.06,330.12z"/>
		<path class="st2" d="M414.48,91.98c-1.99,0.04-3.99,0.11-5.98,0.11c-132.29,0.01-264.57,0-396.86,0.01
			c-1.86,0-3.72,0.11-5.57,0.17c0-1.86,0-3.72,0-5.59c1.59-2.72,1.23-5.85,1.88-8.77C17.24,36.22,52.24,7.19,95.07,6.98
			c76.83-0.38,153.66-0.39,230.48,0C373.8,7.23,412.95,45.15,414.48,91.98z"/>
		<path class="st3" d="M414.48,91.98c-1.53-46.83-40.67-84.75-88.92-85c-76.83-0.39-153.66-0.37-230.48,0
			C52.24,7.19,17.24,36.22,7.95,77.91c-0.65,2.92-0.3,6.06-1.88,8.77c0-25.93,0.03-51.86-0.06-77.79C6,6.61,6.35,6,8.82,6
			c134.57,0.08,269.14,0.08,403.7,0.01c2.49,0,3.06,0.56,3.05,3.05c-0.07,134.43-0.07,268.87,0.02,403.3c0,2.8-0.64,3.25-3.3,3.23
			c-25.8-0.12-51.59-0.07-77.39-0.07c3.18-1.81,6.85-1.37,10.24-2.27c36.15-9.53,58.59-32.52,67.59-68.69
			c1.15-4.61,1.7-9.39,1.74-14.19c0.08-1.32,0.24-2.64,0.24-3.96c0.01-76.69,0.01-153.38,0-230.08
			C414.71,94.89,414.56,93.44,414.48,91.98z"/>
		<path class="st3" d="M6.06,335.71c1.78,3.21,1.36,6.9,2.29,10.31c10.23,37.73,34.36,60.57,72.76,68.25
			c1.32,0.26,2.99-0.22,3.97,1.25c-25.34,0-50.69-0.04-76.03,0.07c-2.49,0.01-3.06-0.57-3.05-3.05
			C6.11,386.93,6.06,361.32,6.06,335.71z"/>
		<path class="st4" d="M87.5,225.66c-1.48-2.04,0.62-5.33-1.37-6.55c-2.66-1.63-6.09-0.42-9.18-0.59c-0.51-0.03-1.04,0.09-1.55,0.14
			c-5.23,0-10.46,0-15.69,0c-2.45,0-4.11-0.39-4.07-3.66c0.03-3.16,1.52-3.78,4.05-3.78c5.25,0.4,10.5,0.39,15.75,0
			c11.36,0.68,11.36,0.68,11.45-10.39c0.06-7.9,2.59-10.39,10.56-10.42c1.73-0.01,3.45-0.08,5.18-0.12
			c7.74,0.08,15.48,0.17,23.22,0.25c0,8.14,0,16.28,0,24.42c-2.85,0.13-5.39,1.17-7.8,2.63c-0.39-2.6,1.1-5.85-3.32-6.85
			c-1.69-0.38-0.77-5.37,1.29-6.05c3.17-1.04,1.75-3.47,1.78-5.32c0.04-2.18-1.9-1.8-3.28-1.81c-5.44-0.04-10.88-0.05-16.33,0
			c-1.35,0.01-3.32-0.48-3.34,1.72c-0.01,1.88-1.36,4.57,1.83,5.26c2.06,0.44,2.01,1.78,1.98,3.26c-0.03,1.54,0.35,3.17-2,3.64
			c-2.95,0.59-1.77,3.14-1.82,4.93c-0.07,2.48,1.95,2.04,3.47,2.05c6.24,0.06,12.47,0.07,18.71,0.1c-3.95,5.93-3.73,9.35,0.98,15.1
			c-0.02,7.9-0.05,15.79-0.07,23.69c-2.17,1.63-4.62,2.59-7.27,3.1c-0.05-10.47-0.23-20.95-0.09-31.42
			c0.04-3.39-1.69-3.46-4.21-3.51c-2.59-0.05-3.85,0.53-3.79,3.5c0.16,9.01,0.08,18.03,0.03,27.05c-0.01,1.46,0.69,3.32-1.48,4.05
			c-1.28-0.11-2.56-0.22-3.84-0.33c-0.85-1.07-2.57-1.34-2.75-3.02c0.06-8.04,0.23-16.08,0.15-24.12
			C94.58,225.22,96.44,225.4,87.5,225.66z"/>
		<path class="st5" d="M125.82,214.97c0-8.14,0-16.28,0-24.42c7.7-0.08,15.4-0.16,23.1-0.24c2.39,0.04,4.78,0.05,7.16,0.12
			c5.72,0.18,8.54,2.96,8.69,8.63c0.11,4.11,0.12,8.22,0.17,12.34c-0.01,2.36-0.01,4.72-0.02,7.08c-0.07,2.38-0.14,4.77-0.22,7.15
			c-8.99-0.02-17.98-0.03-26.96-0.05C136.58,218.9,132.46,215.52,125.82,214.97z M152.96,208.25c0.01-6.43-1.67-9.52-5.7-10.48
			c-4.44-1.06-8.71,1.48-9.45,5.62c-1.56,8.72,0.78,14.38,6.19,14.98c0.13,0.01,0.27,0.01,0.4,0.02
			C150.11,218.78,152.95,215.43,152.96,208.25z"/>
		<path class="st6" d="M156.1,177.28c-2.37,2.04-4.75,4.09-7.12,6.13c-15.46-0.02-30.91-0.03-46.37-0.05
			c-2.53-2.3-5.06-4.6-7.58-6.91c1.58-1.63,3.15-3.25,4.72-4.87c2.07-1.19,4.02-2.53,5.69-4.25c3.11-1.2,6.23-2.4,9.34-3.6
			c4.94-1.25,9.97-1.42,15.02-1.34c2.36,0.43,4.71,0.85,7.07,1.28c3.11,1.23,6.22,2.46,9.32,3.69c1.72,1.64,3.59,3.08,5.72,4.16
			C152.93,173.72,156.48,174.08,156.1,177.28z M125.72,172.9c-2.18,0.16-3.64,1.34-3.62,3.46c0.02,2.14,1.62,3.4,3.68,3.38
			c2.23-0.02,3.89-1.29,3.78-3.68C129.45,173.86,127.8,172.97,125.72,172.9z M141.14,172.86c-1.8,0.29-3.37,1.12-3.39,3.44
			c-0.02,2.34,1.58,3.41,3.61,3.42c2.01,0,3.66-1.04,3.64-3.38C144.98,174.06,143.5,173.1,141.14,172.86z M113.96,176.19
			c-0.21-1.93-1.37-3.21-3.57-3.25c-2.14-0.03-3.63,1-3.74,3.26c-0.11,2.34,1.48,3.43,3.51,3.5
			C112.21,179.78,113.73,178.74,113.96,176.19z"/>
		<path class="st4" d="M137.75,225.59c8.99,0.02,17.98,0.03,26.96,0.05c0.02,3.97-0.17,7.95,0.12,11.9
			c0.65,8.88-2.4,16.04-9.33,21.6c-1.54-0.4-2.83,0.49-4.19,0.89c-11.52,3.33-22.07-2.61-25.05-14.14c-0.15-3.21-0.3-6.42-0.46-9.64
			c2.84-0.17,5.42-1.15,7.83-2.6c0.03,3.19-0.01,6.39,0.1,9.57c0.22,6.14,4.82,10.3,11.33,10.37c6.75,0.07,11.53-4.08,11.81-10.33
			c0.1-2.39-0.11-4.8,0.06-7.18c0.19-2.67-0.93-3.44-3.48-3.4c-6.25,0.11-12.5-0.01-18.75-0.03
			C136.37,230.57,137.2,228.14,137.75,225.59z"/>
		<path class="st7" d="M126.27,245.87c2.98,11.54,13.53,17.48,25.05,14.15c1.36-0.39,2.65-1.29,4.19-0.89
			c-4.63,4.37-10.43,6.23-16.47,7.37c-12.67,2.39-25.11,1.92-37.07-3.47c-1.76-0.79-3.61-1.52-4.71-3.28
			c1.28,0.11,2.56,0.22,3.84,0.33c3.15,1.11,6.35,0.65,9.55,0.34c2.65-0.51,5.1-1.47,7.27-3.1
			C122.47,254.81,123.68,249.83,126.27,245.87z"/>
		<path class="st8" d="M102.61,183.37c15.46,0.02,30.91,0.03,46.37,0.05c-0.02,2.3-0.04,4.6-0.05,6.89
			c-7.7,0.08-15.4,0.16-23.1,0.24c-7.74-0.08-15.48-0.17-23.22-0.25C102.61,187.99,102.61,185.68,102.61,183.37z"/>
		<path class="st7" d="M114.78,163.74c-3.11,1.2-6.23,2.4-9.34,3.6c-1.64-1.96-3.56-2.04-5.43-0.52c-1.7,1.38-1.6,3.1-0.26,4.77
			c-1.57,1.62-3.14,3.24-4.72,4.87c-4.69-2.75-5.64-8.74-1.97-13.28c2.9-3.6,6.81-4.97,11.35-4.35c1.43,0.2,2.34,0.26,3.27-1.23
			c3.29-5.27,8.13-6.89,14.09-5.42c0,2.59,0,5.19,0,7.86C116.24,158.08,114.55,159.02,114.78,163.74z"/>
		<path class="st7" d="M146.2,167.37c-3.11-1.23-6.22-2.46-9.33-3.69c1.14-1.94,0.3-3.32-1.34-4.34c-2.3-1.43-4.01-0.01-5.67,1.38
			c-0.01-2.82-0.01-5.65-0.02-8.47c5.91-1.54,10.81-0.02,14.05,5.25c1.17,1.9,2.39,1.44,3.97,1.27c6.27-0.66,12.14,3.48,12.84,9.22
			c0.48,3.97-0.88,7.28-4.6,9.3c0.37-3.2-3.17-3.56-4.19-5.75c1.43-1.67,1.42-3.39-0.28-4.74
			C149.76,165.3,147.82,165.4,146.2,167.37z"/>
		<path class="st7" d="M176.93,253.95c-1.56-5.14-0.33-10.4-0.69-15.59c-0.1-1.44,0.01-2.89,0.02-4.33
			c5.37,1.28,10.66,2.85,15.83,4.8c-0.04,4.88-0.07,9.77-0.11,14.65C186.96,253.64,181.94,253.79,176.93,253.95z"/>
		<path class="st7" d="M75.39,234.05c0.01,6.47,0.02,12.94,0.03,19.42c-5.25,0.33-10.5,0.37-15.75-0.02
			c-0.03-4.87-0.07-9.73-0.1-14.6C64.73,236.87,70.01,235.31,75.39,234.05z"/>
		<path class="st9" d="M199.81,261.07c-0.15,6.81-0.15,6.81-6.98,6.81c-7.13,0-14.26-0.13-21.39,0.07
			c-2.79,0.08-2.99-1.29-2.88-3.36c0.1-1.91-0.53-4.19,2.78-3.86c1.56,0.16,3.16-0.06,4.74-0.11
			C184,260.76,191.9,260.91,199.81,261.07z"/>
		<path class="st9" d="M79.49,260.61c3.45-0.47,3.65,1.56,3.75,4.29c0.13,3.49-2.03,2.98-4.13,2.98
			c-7.82-0.01-15.63-0.03-23.45,0.01c-2.08,0.01-3.92,0.24-3.76-2.93c0.13-2.64,0.1-4.85,3.67-4.35
			C63.54,260.61,71.51,260.61,79.49,260.61z"/>
		<path class="st10" d="M164.93,218.48c0.01-2.36,0.01-4.72,0.02-7.08c3.76-0.06,7.52-0.13,11.28-0.2
			c5.25,0.4,10.49,0.38,15.74,0.01c2.55-0.06,4.08,0.46,4.07,3.73c0,3.28-1.58,3.75-4.1,3.71c-5.23,0-10.46,0.01-15.68,0.01
			C172.48,218.61,168.71,218.55,164.93,218.48z"/>
		<path class="st7" d="M191.97,211.22c-5.25,0.37-10.49,0.39-15.74-0.01c0.01-4.49,0.02-8.99,0.04-13.49
			c5.21-0.01,10.43-0.02,15.64-0.04C191.93,202.2,191.95,206.71,191.97,211.22z"/>
		<path class="st7" d="M75.42,211.23c-5.25,0.38-10.5,0.39-15.75,0c0.01-4.5,0.03-9.01,0.04-13.51c5.21-0.01,10.43-0.01,15.65-0.02
			C75.39,202.2,75.4,206.71,75.42,211.23z"/>
		<path class="st8" d="M87.5,225.66c8.93-0.26,7.07-0.44,7.15,6.96c0.09,8.04-0.09,16.08-0.15,24.12
			c-5.12-2.77-6.64-7.67-6.94-12.88C87.22,237.81,87.5,231.73,87.5,225.66z"/>
		<path class="st10" d="M192.08,238.83c-5.17-1.96-10.45-3.53-15.83-4.8c-2.01-0.82-4.13-1.18-4.06-4.36
			c0.07-3.16,0.79-4.43,3.98-3.24c5.13,2.01,10.37,3.64,15.76,4.77c2.2,0.87,4.2,1.46,4.12,4.79
			C195.99,239.42,194.78,239.78,192.08,238.83z"/>
		<path class="st10" d="M75.39,234.05c-5.37,1.26-10.66,2.82-15.81,4.8c-1.25-0.21-3.25,1.66-3.62-0.52
			c-0.34-2.04-1.49-4.84,1.57-6.25c0.71-0.33,1.45-0.6,2.18-0.89c5.41-1.09,10.64-2.75,15.78-4.75c1.24,0.48,3.46-2.02,3.74,0.87
			c0.2,2.08,1.41,4.95-2,6.02C76.59,233.53,76,233.81,75.39,234.05z"/>
		<path class="st8" d="M75.37,197.69c-5.22,0.01-10.43,0.01-15.65,0.02c-2.81,0.18-4.33-0.62-4.24-3.96
			c0.09-3.44,2.07-3.39,4.43-3.33c0.79,0.02,1.57-0.05,2.36-0.08c3.53,0.01,7.06,0.02,10.59,0.03c0.78,0.02,1.57,0.09,2.35,0.06
			c2.38-0.09,4.29-0.05,4.37,3.33C79.65,197.06,78.19,197.91,75.37,197.69z"/>
		<path class="st11" d="M79.49,260.61c-7.98,0-15.95,0-23.93,0c0-0.92,0.1-1.86-0.02-2.77c-0.4-3.17,0.78-4.79,4.13-4.39
			c5.25,0.39,10.5,0.35,15.75,0.02C81.67,253.06,78.82,257.84,79.49,260.61z"/>
		<path class="st12" d="M75.48,226.45c-5.13,2-10.37,3.65-15.78,4.75c0-4.18,0-8.36,0-12.53c5.23,0,10.46,0,15.69,0
			C75.43,221.25,75.45,223.85,75.48,226.45z"/>
		<path class="st8" d="M191.91,197.68c-5.21,0.01-10.43,0.02-15.64,0.04c-2.85,0.11-4.24-0.98-4.23-4.1
			c0.01-3.5,2.23-3.18,4.47-3.19c0.78,0,1.56-0.07,2.33-0.1c3.52,0.02,7.04,0.03,10.57,0.05c0.78,0.02,1.56,0.09,2.34,0.05
			c2.38-0.09,4.28-0.04,4.36,3.33C196.18,197.05,194.75,197.92,191.91,197.68z"/>
		<path class="st12" d="M191.94,231.19c-5.4-1.12-10.64-2.75-15.76-4.77c0.03-2.58,0.06-5.17,0.09-7.75
			c5.23,0,10.46-0.01,15.68-0.01C191.94,222.84,191.94,227.01,191.94,231.19z"/>
		<path class="st8" d="M199.81,261.07c-7.91-0.15-15.82-0.3-23.72-0.46c0.28-2.22,0.56-4.44,0.84-6.66
			c5.02-0.16,10.03-0.31,15.05-0.47c0.26,0.01,0.52,0.01,0.78,0.02C200.35,253.57,200.35,253.57,199.81,261.07z"/>
		<path class="st11" d="M129.84,152.24c0.01,2.82,0.01,5.65,0.02,8.47c-0.02,0.56-0.04,1.12-0.05,1.69
			c-5.05-0.08-10.09,0.09-15.02,1.34c-0.23-4.72,1.46-5.67,6.98-3.69c0-2.67,0-5.27,0-7.86c-0.35-3.05,0.88-4.14,4.05-4.16
			C129.06,148.01,130.13,149.28,129.84,152.24z"/>
		<path class="st6" d="M189.41,190.38c-3.52-0.02-7.05-0.03-10.57-0.05c-0.16-0.78-0.31-1.56-0.49-2.33
			c-1.57-6.82-0.51-8.16,6.37-8.05c5.2,0.08,6.59,1.82,5.51,6.96C189.98,188.07,189.68,189.22,189.41,190.38z"/>
		<path class="st6" d="M72.86,190.37c-3.53-0.01-7.06-0.02-10.59-0.03c-0.15-0.78-0.29-1.56-0.47-2.34
			c-1.58-6.8-0.51-8.17,6.36-8.07c5.2,0.08,6.61,1.84,5.52,6.95C73.43,188.06,73.13,189.21,72.86,190.37z"/>
		<path class="st8" d="M117,218.54c-6.24-0.03-12.48-0.04-18.71-0.1c-1.51-0.02-3.54,0.43-3.47-2.05c0.05-1.79-1.13-4.33,1.82-4.93
			c2.35-0.47,1.97-2.1,2-3.64c0.03-1.48,0.08-2.82-1.98-3.26c-3.18-0.68-1.84-3.38-1.83-5.26c0.02-2.2,1.98-1.71,3.34-1.72
			c5.44-0.05,10.88-0.05,16.33,0c1.38,0.01,3.32-0.37,3.28,1.81c-0.03,1.85,1.38,4.28-1.78,5.32c-2.06,0.67-2.98,5.66-1.29,6.05
			c4.42,1,2.93,4.26,3.32,6.85C117.68,217.91,117.34,218.23,117,218.54z"/>
		<path class="st13" d="M117,218.54c0.34-0.31,0.68-0.63,1.02-0.94c2.4-1.46,4.95-2.5,7.8-2.63c6.64,0.55,10.75,3.93,11.93,10.62
			c-0.55,2.55-1.38,4.98-3.04,7.05c-0.36,0.33-0.71,0.66-1.06,1c-2.42,1.45-4.99,2.43-7.83,2.6c-2.83-0.18-5.4-1.18-7.83-2.59
			C113.28,227.89,113.05,224.47,117,218.54z"/>
		<path class="st14" d="M110.64,260.43c-3.2,0.31-6.4,0.77-9.55-0.34c2.17-0.73,1.47-2.59,1.48-4.05
			c0.06-9.02,0.13-18.04-0.03-27.05c-0.05-2.96,1.2-3.54,3.79-3.5c2.52,0.05,4.26,0.12,4.21,3.51
			C110.42,239.48,110.59,249.96,110.64,260.43z"/>
		<path class="st14" d="M117.99,233.64c2.42,1.42,4.99,2.41,7.83,2.59c0.15,3.22,0.31,6.43,0.46,9.64
			c-2.59,3.96-3.8,8.93-8.36,11.45C117.94,249.43,117.96,241.54,117.99,233.64z"/>
		<path class="st15" d="M152.96,208.25c-0.01,7.18-2.84,10.54-8.56,10.14c-0.13-0.01-0.27-0.01-0.4-0.02
			c-5.41-0.6-7.75-6.26-6.19-14.98c0.74-4.14,5.01-6.68,9.45-5.62C151.29,198.73,152.97,201.81,152.96,208.25z"/>
		<path class="st1" d="M125.72,172.9c2.08,0.07,3.73,0.96,3.84,3.15c0.12,2.39-1.55,3.66-3.78,3.68c-2.07,0.02-3.66-1.24-3.68-3.38
			C122.08,174.24,123.54,173.06,125.72,172.9z"/>
		<path class="st1" d="M141.14,172.86c2.36,0.24,3.84,1.2,3.85,3.48c0.02,2.34-1.62,3.38-3.64,3.38c-2.02-0.01-3.62-1.08-3.61-3.42
			C137.77,173.98,139.34,173.15,141.14,172.86z"/>
		<path class="st1" d="M113.96,176.19c-0.23,2.55-1.76,3.59-3.8,3.52c-2.03-0.07-3.62-1.16-3.51-3.5c0.11-2.27,1.6-3.3,3.74-3.26
			C112.6,172.98,113.75,174.26,113.96,176.19z"/>
		<path class="st1" d="M129.8,162.4c0.02-0.56,0.04-1.12,0.05-1.69c1.67-1.39,3.37-2.8,5.67-1.38c1.64,1.02,2.48,2.4,1.34,4.34
			C134.52,163.25,132.16,162.83,129.8,162.4z"/>
		<path class="st1" d="M146.2,167.37c1.62-1.98,3.56-2.07,5.44-0.58c1.7,1.35,1.71,3.07,0.28,4.74
			C149.79,170.45,147.92,169.02,146.2,167.37z"/>
		<path class="st1" d="M99.75,171.59c-1.34-1.67-1.43-3.39,0.26-4.77c1.87-1.52,3.79-1.44,5.43,0.52
			C103.77,169.07,101.82,170.41,99.75,171.59z"/>
		<path class="st8" d="M133.65,233.64c0.35-0.33,0.71-0.66,1.06-1c6.25,0.02,12.5,0.14,18.75,0.03c2.55-0.05,3.67,0.73,3.48,3.4
			c-0.17,2.38,0.04,4.79-0.06,7.18c-0.27,6.25-5.05,10.4-11.81,10.33c-6.51-0.06-11.11-4.22-11.33-10.37
			C133.63,240.02,133.67,236.83,133.65,233.64z M145.92,239.83c-2.34,0.05-4.4-0.34-4.33,2.61c0.05,2.55,1.06,4.09,3.77,3.98
			c2.39-0.09,3.51-1.43,3.67-3.81C149.21,239.77,147.39,239.74,145.92,239.83z"/>
		<path class="st2" d="M145.92,239.83c1.48-0.09,3.29-0.06,3.1,2.78c-0.16,2.38-1.28,3.72-3.67,3.81c-2.71,0.1-3.72-1.43-3.77-3.98
			C141.52,239.49,143.58,239.88,145.92,239.83z"/>
	</g>
</g>
</svg>
