<?xml version="1.0" encoding="utf-8"?>
<!-- Generator: Adobe Illustrator 24.0.1, SVG Export Plug-In . SVG Version: 6.00 Build 0)  -->
<svg version="1.1" id="Capa_1" xmlns="http://www.w3.org/2000/svg" xmlns:xlink="http://www.w3.org/1999/xlink" x="0px" y="0px"
	 viewBox="0 0 542.3 528.7" style="enable-background:new 0 0 542.3 528.7;" xml:space="preserve">
<style type="text/css">
	.st0{fill:#CC0000;}
	.st1{fill:#FFD700;}
</style>
<path class="st0" d="M0,0h542.3v528.7H0V0z"/>
<g>
	<path class="st1" d="M200,37.5l-8.4,25.9h-27.2l22,16l-8.4,25.9l22-16l22,16l-8.4-25.9l22-16h-27.2L200,37.5z M200,51l5.4,16.6
		h17.4l-14.1,10.2l5.4,16.6L200,84.2l-14.1,10.2l5.4-16.6l-14.1-10.2h17.4L200,51z"/>
	<g transform="matrix(.98931879 0 0 .98673811 3.829766 3.76594)">
		<path class="st1" d="M137.4,171.7l18.9,19l17.8-17.7c27.1,29,55.4,57,82.3,86.1c4,4.1,10.6,4.1,14.7,0.1c4.1-4,4.1-10.6,0.1-14.7
			c-28.8-27.2-57.7-54.6-86.6-81.9l24-23.8l-33.3-4.6L137.4,171.7z"/>
		<path class="st1" d="M198.3,110.2c15.5,8.7,27.3,21.3,34.2,34.4c7,13.3,10.1,27.2,10.2,38.3c0.1,22.7-18.4,41.2-41.2,41.2
			c-12.1,0-23-5.2-30.6-13.6l-4.2,3.5c-0.7-0.3-1.5-0.4-2.2-0.4c-1.8,0-3.6,0.8-4.7,2.2c-3,0.4-5.5,2.4-6.4,5.3
			c-3.1,6.3-8.6,11.2-15.3,13.5c-0.1,0-0.1,0.1-0.2,0.1c-3.1,1.1-6.2,3.2-8.8,5.8c-5.2,5.2-7.7,11.9-6.3,16.6
			c-0.1,0.4-0.2,0.8-0.2,1.3c0,2.2,1.8,3.9,3.9,3.9c0.5,0,1.1-0.1,1.6-0.3c4.7,1.1,11.1-1.5,16.1-6.6c2.8-2.9,4.9-6.2,6-9.5
			c2.3-6.6,7.3-12,13.6-15.1c0.2-0.1,0.3-0.1,0.4-0.2c2.1-1,3.7-2.9,4.2-5.2c9.7,11.4,24.3,18.8,40.5,19.1
			c29.8,0.7,52.1-21.3,53.2-52.8c0.5-15.9-5.6-36.4-19.6-53.2C231.8,125.6,216.1,114.9,198.3,110.2L198.3,110.2z"/>
	</g>
</g>
</svg>
