<?xml version="1.0" encoding="utf-8"?>
<!-- Generator: Adobe Illustrator 24.0.1, SVG Export Plug-In . SVG Version: 6.00 Build 0)  -->
<svg version="1.1" id="Capa_1" xmlns="http://www.w3.org/2000/svg" xmlns:xlink="http://www.w3.org/1999/xlink" x="0px" y="0px"
	 viewBox="0 0 334 122" style="enable-background:new 0 0 334 122;" xml:space="preserve">
<style type="text/css">
	.st0{fill-rule:evenodd;clip-rule:evenodd;}
	.st1{fill-rule:evenodd;clip-rule:evenodd;fill:#FFFFFF;}
</style>
<g>
	<polygon class="st0" points="8.64,75.64 8.64,8.79 95.85,8.79 95.85,75.64 46.89,75.64 28.02,113.81 28.02,75.78 	"/>
	<path class="st1" d="M35.59,34c0.64,0,1.15-0.51,1.15-1.15v-0.83c0-1.03-0.35-1.92-0.99-2.56c-0.64-0.66-1.53-0.99-2.57-0.99
		c-1.03,0-1.92,0.34-2.57,0.99c-0.64,0.64-0.98,1.53-0.98,2.56v2.24c0,1.05,0.34,1.93,0.98,2.57c0.66,0.66,1.54,0.99,2.57,0.99
		c0.94,0,1.85-0.2,2.7-0.6c0.32-0.16,0.46-0.46,0.46-0.8c0-0.46-0.43-0.83-0.87-0.83c-0.12,0-0.25,0.04-0.37,0.09
		c-0.6,0.27-1.24,0.46-1.92,0.46c-0.6,0-1.06-0.21-1.37-0.6c-0.23-0.32-0.35-0.8-0.35-1.53H35.59L35.59,34z M31.46,32.31
		c0-1.49,0.6-2.17,1.72-2.17c1.14,0,1.74,0.69,1.74,2.17H31.46L31.46,32.31z M39.37,36.55c-0.05,0.12-0.07,0.23-0.07,0.35
		c0,0.44,0.41,0.91,0.9,0.91c0.35,0,0.73-0.23,0.87-0.59l4.33-10.95c0.05-0.12,0.07-0.23,0.07-0.36c0-0.44-0.39-0.9-0.9-0.9
		c-0.35,0-0.73,0.23-0.87,0.59L39.37,36.55L39.37,36.55z M51.14,34.1c0.66,0.23,1.19,0.44,1.19,1.1c0,0.6-0.44,0.92-1.3,0.92
		c-0.78,0-1.37-0.16-1.85-0.41c-0.12-0.05-0.28-0.11-0.41-0.11c-0.5,0-0.89,0.43-0.89,0.89c0,0.35,0.21,0.66,0.55,0.82
		c0.66,0.3,1.51,0.5,2.56,0.5c1.9,0,3.16-1.22,3.16-2.79c0-1.3-0.71-2.09-1.88-2.48l-1.74-0.57c-0.37-0.12-0.73-0.41-0.73-0.87
		c0-0.6,0.48-0.96,1.21-0.96c0.59,0,1.31,0.14,1.76,0.36c0.12,0.05,0.3,0.09,0.43,0.09c0.48,0,0.85-0.39,0.85-0.85
		c0-0.37-0.23-0.69-0.59-0.83c-0.59-0.27-1.21-0.44-2.41-0.44c-1.77,0-3.07,1.12-3.07,2.68c0,1.33,0.75,2.08,1.7,2.43L51.14,34.1
		L51.14,34.1z M56.71,36.55c-0.05,0.12-0.07,0.23-0.07,0.35c0,0.44,0.41,0.91,0.91,0.91c0.35,0,0.73-0.23,0.87-0.59l4.33-10.95
		c0.05-0.12,0.07-0.23,0.07-0.36c0-0.44-0.39-0.9-0.9-0.9c-0.35,0-0.73,0.23-0.87,0.59L56.71,36.55L56.71,36.55z M65.37,34.24
		c0,1.05,0.34,1.93,0.98,2.57c0.66,0.66,1.54,0.99,2.57,0.99c0.96,0,1.9-0.16,2.79-0.46c0.46-0.16,0.78-0.59,0.78-1.08V25.94
		c0-0.51-0.41-0.92-0.92-0.92c-0.51,0-0.91,0.41-0.91,0.92c0,0,0,1.83,0,2.98c-0.48-0.25-1.14-0.46-1.74-0.46
		c-1.03,0-1.93,0.32-2.59,0.98c-0.64,0.64-0.96,1.54-0.96,2.57V34.24L65.37,34.24z M70.66,35.89c-0.55,0.16-1.14,0.23-1.74,0.23
		c-1.08,0-1.72-0.62-1.72-1.72v-2.54c0-1.08,0.64-1.72,1.72-1.72c0.64,0,1.26,0.23,1.74,0.64V35.89L70.66,35.89z M75.41,36.55
		c-0.05,0.12-0.07,0.23-0.07,0.35c0,0.44,0.41,0.91,0.9,0.91c0.36,0,0.73-0.23,0.87-0.59l4.33-10.95c0.05-0.12,0.07-0.23,0.07-0.36
		c0-0.44-0.39-0.9-0.91-0.9c-0.35,0-0.73,0.23-0.87,0.59L75.41,36.55z"/>
	<path class="st1" d="M30.95,55.97c0,0.51,0.39,0.92,0.9,0.92c0.52,0,0.92-0.41,0.92-0.92V50.9c0-1.92-1.44-3.35-3.35-3.35
		c-0.89,0-1.76,0.25-2.48,0.73c-0.55-0.46-1.3-0.73-2.15-0.73c-1.03,0-1.93,0.16-2.86,0.51c-0.44,0.18-0.75,0.6-0.75,1.08v6.83
		c0,0.51,0.41,0.92,0.92,0.92c0.5,0,0.9-0.41,0.9-0.92v-6.5c0.57-0.16,0.96-0.25,1.6-0.25c0.78,0,1.46,0.27,1.46,1.3v5.45
		c0,0.51,0.41,0.92,0.9,0.92c0.51,0,0.92-0.41,0.92-0.92v-6.28c0.44-0.28,0.98-0.46,1.53-0.46c0.83,0,1.53,0.69,1.53,1.53V55.97
		L30.95,55.97z M42.11,50.56c0-1.58-1.08-3.02-3.07-3.02c-1.28,0-2.11,0.16-3.07,0.71c-0.3,0.18-0.44,0.5-0.44,0.82
		c0,0.44,0.39,0.8,0.87,0.8c0.16,0,0.36-0.07,0.5-0.16c0.62-0.37,1.08-0.48,1.92-0.48c0.92,0,1.47,0.59,1.47,1.33v0.62h-1.83
		c-1.08,0-1.93,0.27-2.54,0.78C35.31,52.46,35,53.13,35,54c0,0.87,0.32,1.6,0.92,2.11c0.6,0.51,1.45,0.78,2.54,0.78
		c0.99,0,2.01-0.16,2.87-0.46c0.46-0.16,0.78-0.58,0.78-1.08V50.56L42.11,50.56z M40.28,54.98c-0.57,0.14-1.22,0.23-1.83,0.23
		c-1.54,0-1.63-0.89-1.63-1.21c0-0.3,0.09-1.14,1.63-1.14h1.83V54.98L40.28,54.98z M44.49,53.33c0,1.05,0.34,1.93,0.98,2.57
		c0.66,0.66,1.54,0.99,2.57,0.99c0.96,0,1.9-0.16,2.79-0.46c0.46-0.16,0.78-0.58,0.78-1.08V45.02c0-0.51-0.41-0.92-0.92-0.92
		c-0.52,0-0.91,0.41-0.91,0.92c0,0,0,1.83,0,2.98c-0.48-0.25-1.14-0.46-1.74-0.46c-1.03,0-1.93,0.32-2.59,0.98
		c-0.64,0.64-0.96,1.54-0.96,2.57V53.33L44.49,53.33z M49.78,54.98c-0.55,0.16-1.14,0.23-1.74,0.23c-1.08,0-1.72-0.62-1.72-1.72
		v-2.54c0-1.08,0.64-1.72,1.72-1.72c0.64,0,1.26,0.23,1.74,0.64V54.98L49.78,54.98z M54.38,55.97c0,0.51,0.41,0.92,0.92,0.92
		c0.5,0,0.91-0.41,0.91-0.92v-5.93c0-0.44,0.37-0.82,0.82-0.82c0.28,0,0.6,0.07,0.89,0.14c0.14,0.04,0.2,0.04,0.3,0.04
		c0.52,0,0.87-0.37,0.87-0.85c0-0.43-0.3-0.78-0.73-0.87c-0.44-0.09-0.89-0.14-1.33-0.14c-1.51,0-2.64,1.14-2.64,2.64V55.97
		L54.38,55.97z M63.04,45.13c0-0.57-0.46-1.03-1.03-1.03c-0.57,0-1.03,0.46-1.03,1.03c0,0.57,0.46,1.03,1.03,1.03
		C62.58,46.16,63.04,45.7,63.04,45.13L63.04,45.13z M61.09,55.97c0,0.51,0.43,0.92,0.92,0.92c0.51,0,0.91-0.41,0.91-0.92v-7.51
		c0-0.51-0.39-0.92-0.91-0.92c-0.5,0-0.92,0.41-0.92,0.92V55.97L61.09,55.97z M65.49,53.33c0,1.05,0.34,1.93,0.98,2.57
		c0.66,0.66,1.54,0.99,2.57,0.99c0.96,0,1.9-0.16,2.79-0.46c0.46-0.16,0.78-0.58,0.78-1.08V45.02c0-0.51-0.41-0.92-0.92-0.92
		c-0.51,0-0.91,0.41-0.91,0.92c0,0,0,1.83,0,2.98c-0.48-0.25-1.14-0.46-1.74-0.46c-1.03,0-1.93,0.32-2.59,0.98
		c-0.64,0.64-0.96,1.54-0.96,2.57V53.33L65.49,53.33z M70.78,54.98c-0.55,0.16-1.14,0.23-1.74,0.23c-1.08,0-1.72-0.62-1.72-1.72
		v-2.54c0-1.08,0.64-1.72,1.72-1.72c0.64,0,1.26,0.23,1.74,0.64V54.98z"/>
</g>
<path class="st0" d="M113.39,71.4c0.47,0,0.85-0.38,0.85-0.85V69.6c0-1.98-1.32-3.32-3.3-3.32c-1.99,0-3.32,1.34-3.32,3.32v2.81
	c0,1.98,1.32,3.32,3.32,3.32c0.91,0,1.78-0.18,2.59-0.58c0.22-0.11,0.34-0.31,0.34-0.54c0-0.33-0.27-0.58-0.62-0.58
	c-0.09,0-0.16,0.02-0.25,0.05c-0.65,0.29-1.34,0.51-2.07,0.51c-1.31,0-2.08-0.87-2.08-2.18V71.4H113.39L113.39,71.4z M113.01,70.26
	h-4.15v-0.74c0-1.31,0.78-2.09,2.08-2.09c1.29,0,2.07,0.78,2.07,2.09V70.26L113.01,70.26z M120.38,71.76
	c0.76,0.33,1.14,0.73,1.14,1.49c0,0.83-0.76,1.34-1.61,1.34c-0.73,0-1.36-0.2-1.94-0.45c-0.09-0.04-0.16-0.07-0.25-0.07
	c-0.36,0-0.62,0.25-0.62,0.58c0,0.25,0.13,0.45,0.36,0.56c0.69,0.33,1.45,0.53,2.39,0.53c1.67,0,2.9-1.18,2.9-2.68
	c0-1.11-0.73-1.98-1.81-2.41l-1.7-0.69c-0.4-0.16-0.91-0.53-0.91-1.25c0-0.92,0.85-1.27,1.56-1.27c0.69,0,1.34,0.15,1.89,0.4
	c0.09,0.04,0.16,0.05,0.24,0.05c0.34,0,0.62-0.24,0.62-0.56c0-0.25-0.15-0.47-0.38-0.58c-0.62-0.27-1.32-0.45-2.21-0.45
	c-1.61,0-2.94,0.96-2.94,2.47c0,1.29,0.73,1.94,1.58,2.3L120.38,71.76L120.38,71.76z M125.62,72.41c0,1.98,1.32,3.32,3.32,3.32
	c0.83,0,1.63-0.18,2.37-0.54c0.22-0.11,0.34-0.31,0.34-0.54c0-0.33-0.29-0.58-0.62-0.58c-0.09,0-0.2,0.04-0.27,0.07
	c-0.54,0.27-1.2,0.45-1.83,0.45c-1.31,0-2.08-0.78-2.08-2.08v-2.99c0-1.31,0.78-2.09,2.08-2.09c0.63,0,1.25,0.18,1.83,0.47
	c0.09,0.04,0.18,0.05,0.27,0.05c0.34,0,0.62-0.25,0.62-0.58c0-0.22-0.13-0.44-0.34-0.54c-0.74-0.36-1.54-0.54-2.37-0.54
	c-1.99,0-3.32,1.34-3.32,3.32V72.41L125.62,72.41z M139.9,74.28c-0.65,0.2-1.36,0.31-2.07,0.31c-1.31,0-2.09-0.78-2.09-2.08v-5.6
	c0-0.33-0.27-0.62-0.62-0.62c-0.34,0-0.62,0.29-0.62,0.62v5.51c0,2.01,1.27,3.32,3.32,3.32c0.94,0,1.87-0.16,2.74-0.45
	c0.33-0.11,0.56-0.44,0.56-0.8V66.9c0-0.33-0.27-0.62-0.62-0.62s-0.62,0.29-0.62,0.62V74.28L139.9,74.28z M150.21,71.4
	c0.47,0,0.85-0.38,0.85-0.85V69.6c0-1.98-1.32-3.32-3.3-3.32c-1.99,0-3.32,1.34-3.32,3.32v2.81c0,1.98,1.32,3.32,3.32,3.32
	c0.91,0,1.78-0.18,2.59-0.58c0.22-0.11,0.34-0.31,0.34-0.54c0-0.33-0.27-0.58-0.62-0.58c-0.09,0-0.16,0.02-0.25,0.05
	c-0.65,0.29-1.34,0.51-2.07,0.51c-1.31,0-2.09-0.87-2.09-2.18V71.4H150.21L150.21,71.4z M149.83,70.26h-4.15v-0.74
	c0-1.31,0.78-2.09,2.09-2.09c1.29,0,2.07,0.78,2.07,2.09V70.26L149.83,70.26z M154.46,75.11c0,0.35,0.27,0.62,0.62,0.62
	c0.34,0,0.62-0.27,0.62-0.62V63.28c0-0.34-0.27-0.62-0.62-0.62c-0.34,0-0.62,0.27-0.62,0.62V75.11L154.46,75.11z M165.52,69.04
	c0-1.85-1.45-2.76-3.15-2.76c-0.89,0-1.83,0.2-2.68,0.73c-0.2,0.13-0.31,0.33-0.31,0.54c0,0.36,0.29,0.58,0.62,0.58
	c0.11,0,0.2-0.04,0.29-0.09c0.69-0.4,1.36-0.62,2.08-0.62c1.14,0,1.92,0.56,1.92,1.63v1.14h-2.07c-1.11,0-1.96,0.22-2.52,0.73
	c-0.53,0.49-0.8,1.16-0.8,2.01c0,0.85,0.27,1.54,0.8,2.01c0.56,0.51,1.41,0.78,2.52,0.78c0.94,0,1.85-0.16,2.72-0.45
	c0.34-0.11,0.58-0.44,0.58-0.8V69.04L165.52,69.04z M164.29,74.28c-0.65,0.2-1.36,0.31-2.07,0.31c-1.85,0-2.08-0.92-2.08-1.65
	s0.24-1.59,2.08-1.59h2.07V74.28L164.29,74.28z M177.14,71.76c0.76,0.33,1.14,0.73,1.14,1.49c0,0.83-0.76,1.34-1.61,1.34
	c-0.72,0-1.36-0.2-1.94-0.45c-0.09-0.04-0.16-0.07-0.25-0.07c-0.36,0-0.62,0.25-0.62,0.58c0,0.25,0.13,0.45,0.36,0.56
	c0.69,0.33,1.45,0.53,2.39,0.53c1.67,0,2.9-1.18,2.9-2.68c0-1.11-0.73-1.98-1.81-2.41l-1.7-0.69c-0.4-0.16-0.91-0.53-0.91-1.25
	c0-0.92,0.85-1.27,1.56-1.27c0.69,0,1.34,0.15,1.89,0.4c0.09,0.04,0.16,0.05,0.24,0.05c0.34,0,0.62-0.24,0.62-0.56
	c0-0.25-0.14-0.47-0.38-0.58c-0.62-0.27-1.32-0.45-2.21-0.45c-1.61,0-2.94,0.96-2.94,2.47c0,1.29,0.73,1.94,1.58,2.3L177.14,71.76
	L177.14,71.76z M188.05,74.28c-0.65,0.2-1.36,0.31-2.07,0.31c-1.3,0-2.08-0.78-2.08-2.08v-5.6c0-0.33-0.27-0.62-0.62-0.62
	c-0.34,0-0.62,0.29-0.62,0.62v5.51c0,2.01,1.27,3.32,3.32,3.32c0.94,0,1.87-0.16,2.74-0.45c0.33-0.11,0.56-0.44,0.56-0.8V66.9
	c0-0.33-0.27-0.62-0.62-0.62c-0.35,0-0.62,0.29-0.62,0.62V74.28L188.05,74.28z M192.95,78.98c0,0.34,0.27,0.62,0.62,0.62
	c0.34,0,0.62-0.27,0.62-0.62v-3.79c0.63,0.34,1.34,0.54,2.08,0.54c1.98,0,3.3-1.34,3.3-3.32V69.6c0-1.98-1.32-3.32-3.3-3.32
	c-0.94,0-1.87,0.15-2.74,0.45c-0.34,0.13-0.58,0.44-0.58,0.8V78.98L192.95,78.98z M198.34,72.5c0,1.31-0.78,2.08-2.07,2.08
	c-0.78,0-1.52-0.2-2.08-0.73v-6.13c0.67-0.2,1.36-0.31,2.08-0.31c1.29,0,2.07,0.78,2.07,2.09V72.5L198.34,72.5z M208.37,71.4
	c0.47,0,0.85-0.38,0.85-0.85V69.6c0-1.98-1.32-3.32-3.3-3.32c-1.99,0-3.32,1.34-3.32,3.32v2.81c0,1.98,1.32,3.32,3.32,3.32
	c0.91,0,1.78-0.18,2.59-0.58c0.22-0.11,0.34-0.31,0.34-0.54c0-0.33-0.27-0.58-0.62-0.58c-0.09,0-0.16,0.02-0.25,0.05
	c-0.65,0.29-1.34,0.51-2.07,0.51c-1.31,0-2.08-0.87-2.08-2.18V71.4H208.37L208.37,71.4z M207.99,70.26h-4.15v-0.74
	c0-1.31,0.78-2.09,2.08-2.09c1.29,0,2.07,0.78,2.07,2.09V70.26L207.99,70.26z M212.53,75.11c0,0.35,0.27,0.62,0.62,0.62
	c0.34,0,0.62-0.27,0.62-0.62v-6.38c0-0.8,0.51-1.27,1.14-1.27c0.31,0,0.58,0.04,0.87,0.09c0.11,0.02,0.22,0.05,0.31,0.05
	c0.34,0,0.62-0.25,0.62-0.58c0-0.27-0.2-0.54-0.49-0.6c-0.44-0.09-0.87-0.15-1.31-0.15c-1.3,0-2.38,0.98-2.38,2.5V75.11
	L212.53,75.11z M219.57,75.11c0,0.35,0.27,0.62,0.62,0.62c0.34,0,0.62-0.27,0.62-0.62V66.9c0-0.33-0.27-0.62-0.62-0.62
	c-0.34,0-0.62,0.29-0.62,0.62V75.11L219.57,75.11z M220.19,64.31c0.45,0,0.82-0.38,0.82-0.83c0-0.45-0.36-0.82-0.82-0.82
	c-0.45,0-0.82,0.36-0.82,0.82C219.38,63.93,219.74,64.31,220.19,64.31L220.19,64.31z M231.28,69.78c0-2.08-1.4-3.5-3.48-3.5
	c-2.08,0-3.48,1.41-3.48,3.5v2.45c0,2.08,1.4,3.5,3.48,3.5c2.09,0,3.48-1.41,3.48-3.5V69.78L231.28,69.78z M230.04,72.32
	c0,1.41-0.83,2.27-2.25,2.27c-1.41,0-2.25-0.85-2.25-2.27v-2.63c0-1.41,0.83-2.27,2.25-2.27c1.41,0,2.25,0.85,2.25,2.27V72.32
	L230.04,72.32z M234.59,75.11c0,0.35,0.27,0.62,0.62,0.62c0.34,0,0.62-0.27,0.62-0.62v-6.38c0-0.8,0.51-1.27,1.14-1.27
	c0.31,0,0.58,0.04,0.87,0.09c0.11,0.02,0.22,0.05,0.31,0.05c0.34,0,0.62-0.25,0.62-0.58c0-0.27-0.2-0.54-0.49-0.6
	c-0.44-0.09-0.87-0.15-1.31-0.15c-1.31,0-2.38,0.98-2.38,2.5V75.11L234.59,75.11z M249.58,75.73c0.96,0,1.87-0.16,2.74-0.45
	c0.34-0.11,0.58-0.44,0.58-0.8v-11.2c0-0.34-0.27-0.62-0.62-0.62c-0.34,0-0.62,0.27-0.62,0.62v3.55c-0.63-0.34-1.34-0.54-2.08-0.54
	c-2.01,0-3.3,1.31-3.3,3.32v2.81C246.28,74.39,247.6,75.73,249.58,75.73L249.58,75.73z M247.51,69.51c0-1.31,0.78-2.09,2.07-2.09
	c0.78,0,1.52,0.2,2.08,0.73v6.13c-0.65,0.2-1.36,0.31-2.08,0.31c-1.29,0-2.07-0.78-2.07-2.08V69.51L247.51,69.51z M261.97,71.4
	c0.47,0,0.85-0.38,0.85-0.85V69.6c0-1.98-1.32-3.32-3.3-3.32c-1.99,0-3.32,1.34-3.32,3.32v2.81c0,1.98,1.32,3.32,3.32,3.32
	c0.91,0,1.78-0.18,2.59-0.58c0.22-0.11,0.34-0.31,0.34-0.54c0-0.33-0.27-0.58-0.62-0.58c-0.09,0-0.16,0.02-0.25,0.05
	c-0.65,0.29-1.34,0.51-2.07,0.51c-1.31,0-2.08-0.87-2.08-2.18V71.4H261.97L261.97,71.4z M261.59,70.26h-4.15v-0.74
	c0-1.31,0.78-2.09,2.08-2.09c1.29,0,2.07,0.78,2.07,2.09V70.26L261.59,70.26z M274.28,75.73c0.96,0,1.87-0.16,2.74-0.45
	c0.34-0.11,0.58-0.44,0.58-0.8v-11.2c0-0.34-0.27-0.62-0.62-0.62c-0.34,0-0.62,0.27-0.62,0.62v3.55c-0.63-0.34-1.34-0.54-2.08-0.54
	c-2.01,0-3.3,1.31-3.3,3.32v2.81C270.98,74.39,272.3,75.73,274.28,75.73L274.28,75.73z M272.21,69.51c0-1.31,0.78-2.09,2.07-2.09
	c0.78,0,1.52,0.2,2.08,0.73v6.13c-0.65,0.2-1.36,0.31-2.08,0.31c-1.29,0-2.07-0.78-2.07-2.08V69.51L272.21,69.51z M281.46,75.11
	c0,0.35,0.27,0.62,0.62,0.62c0.34,0,0.62-0.27,0.62-0.62V66.9c0-0.33-0.27-0.62-0.62-0.62c-0.34,0-0.62,0.29-0.62,0.62V75.11
	L281.46,75.11z M282.08,64.31c0.45,0,0.82-0.38,0.82-0.83c0-0.45-0.36-0.82-0.82-0.82c-0.45,0-0.82,0.36-0.82,0.82
	C281.26,63.93,281.63,64.31,282.08,64.31L282.08,64.31z M289.4,71.76c0.76,0.33,1.14,0.73,1.14,1.49c0,0.83-0.76,1.34-1.61,1.34
	c-0.72,0-1.36-0.2-1.94-0.45c-0.09-0.04-0.16-0.07-0.25-0.07c-0.36,0-0.62,0.25-0.62,0.58c0,0.25,0.13,0.45,0.36,0.56
	c0.69,0.33,1.45,0.53,2.39,0.53c1.67,0,2.9-1.18,2.9-2.68c0-1.11-0.73-1.98-1.81-2.41l-1.7-0.69c-0.4-0.16-0.91-0.53-0.91-1.25
	c0-0.92,0.85-1.27,1.56-1.27c0.69,0,1.34,0.15,1.89,0.4c0.09,0.04,0.16,0.05,0.24,0.05c0.34,0,0.62-0.24,0.62-0.56
	c0-0.25-0.14-0.47-0.38-0.58c-0.62-0.27-1.32-0.45-2.21-0.45c-1.61,0-2.94,0.96-2.94,2.47c0,1.29,0.73,1.94,1.58,2.3L289.4,71.76
	L289.4,71.76z M300.41,71.4c0.47,0,0.85-0.38,0.85-0.85V69.6c0-1.98-1.32-3.32-3.3-3.32c-1.99,0-3.32,1.34-3.32,3.32v2.81
	c0,1.98,1.32,3.32,3.32,3.32c0.91,0,1.78-0.18,2.59-0.58c0.22-0.11,0.34-0.31,0.34-0.54c0-0.33-0.27-0.58-0.62-0.58
	c-0.09,0-0.16,0.02-0.25,0.05c-0.65,0.29-1.34,0.51-2.07,0.51c-1.31,0-2.08-0.87-2.08-2.18V71.4H300.41L300.41,71.4z M300.03,70.26
	h-4.15v-0.74c0-1.31,0.78-2.09,2.08-2.09c1.29,0,2.07,0.78,2.07,2.09V70.26L300.03,70.26z M309.95,75.11c0,0.35,0.27,0.62,0.62,0.62
	c0.34,0,0.62-0.27,0.62-0.62V69.6c0-1.98-1.32-3.32-3.3-3.32c-0.96,0-1.88,0.15-2.74,0.45c-0.34,0.13-0.58,0.44-0.58,0.8v7.58
	c0,0.35,0.27,0.62,0.62,0.62c0.34,0,0.62-0.27,0.62-0.62v-7.38c0.65-0.2,1.36-0.31,2.08-0.31c1.29,0,2.07,0.78,2.07,2.09V75.11
	L309.95,75.11z M310.28,63.6c0.09-0.11,0.13-0.24,0.13-0.36c0-0.34-0.27-0.58-0.58-0.58c-0.18,0-0.33,0.07-0.47,0.24
	c-0.16,0.18-0.44,0.33-0.69,0.33c-0.16,0-0.33-0.07-0.47-0.16c-0.38-0.23-0.78-0.4-1.21-0.4c-0.63,0-1.23,0.25-1.61,0.76
	c-0.07,0.11-0.13,0.25-0.13,0.38c0,0.34,0.27,0.58,0.58,0.58c0.18,0,0.33-0.07,0.47-0.23c0.16-0.2,0.43-0.33,0.69-0.33
	c0.18,0,0.33,0.07,0.47,0.16c0.38,0.25,0.78,0.4,1.21,0.4C309.3,64.38,309.9,64.11,310.28,63.6L310.28,63.6z M321.37,69.78
	c0-2.08-1.4-3.5-3.48-3.5c-2.09,0-3.48,1.41-3.48,3.5v2.45c0,2.08,1.4,3.5,3.48,3.5c2.08,0,3.48-1.41,3.48-3.5V69.78L321.37,69.78z
	 M320.13,72.32c0,1.41-0.83,2.27-2.25,2.27c-1.41,0-2.25-0.85-2.25-2.27v-2.63c0-1.41,0.83-2.27,2.25-2.27
	c1.41,0,2.25,0.85,2.25,2.27V72.32z"/>
</svg>
